<?xml version="1.0" encoding="UTF-8" standalone="no"?>
<!-- Created with Inkscape (http://www.inkscape.org/) -->

<svg
   width="3000"
   height="2000"
   viewBox="0 0 793.74996 529.16668"
   version="1.1"
   id="svg5"
   inkscape:version="1.1.1 (3bf5ae0d25, 2021-09-20)"
   sodipodi:docname="banner1.svg"
   inkscape:export-filename="C:\Users\Dimastio Setiawan\Documents\0 Projects\Vizir\banner1.png"
   inkscape:export-xdpi="96"
   inkscape:export-ydpi="96"
   xmlns:inkscape="http://www.inkscape.org/namespaces/inkscape"
   xmlns:sodipodi="http://sodipodi.sourceforge.net/DTD/sodipodi-0.dtd"
   xmlns:xlink="http://www.w3.org/1999/xlink"
   xmlns="http://www.w3.org/2000/svg"
   xmlns:svg="http://www.w3.org/2000/svg">
  <sodipodi:namedview
     id="namedview7"
     pagecolor="#505050"
     bordercolor="#ffffff"
     borderopacity="1"
     inkscape:pageshadow="0"
     inkscape:pageopacity="0"
     inkscape:pagecheckerboard="1"
     inkscape:document-units="mm"
     showgrid="false"
     units="px"
     inkscape:object-nodes="true"
     inkscape:snap-smooth-nodes="true"
     inkscape:zoom="0.125"
     inkscape:cx="1472"
     inkscape:cy="940"
     inkscape:window-width="1366"
     inkscape:window-height="715"
     inkscape:window-x="-8"
     inkscape:window-y="-8"
     inkscape:window-maximized="1"
     inkscape:current-layer="layer1" />
  <defs
     id="defs2">
    <linearGradient
       inkscape:collect="always"
       id="linearGradient4835">
      <stop
         style="stop-color:#ffffd5;stop-opacity:1"
         offset="0"
         id="stop4831" />
      <stop
         style="stop-color:#baffd5;stop-opacity:1"
         offset="1"
         id="stop4833" />
    </linearGradient>
    <linearGradient
       inkscape:collect="always"
       xlink:href="#linearGradient4835"
       id="linearGradient4837"
       x1="-0.01286788"
       y1="530.68127"
       x2="796.99084"
       y2="-2.1166275"
       gradientUnits="userSpaceOnUse" />
  </defs>
  <g
     inkscape:label="Layer 1"
     inkscape:groupmode="layer"
     id="layer1">
    <rect
       style="fill:url(#linearGradient4837);fill-opacity:1;stroke-width:0.3"
       id="rect4731"
       width="797.00372"
       height="532.79791"
       x="-0.01286788"
       y="-2.1166275" />
    <g
       id="g2314"
       transform="matrix(0.8216625,0,0,0.8216625,18.004176,48.246825)"
       style="stroke-width:1.21704">
      <path
         id="rect1061"
         style="font-variation-settings:'wdth' 94, 'wght' 545;fill:#80ffb3;fill-opacity:1;stroke-width:0.365113"
         d="m 82.376321,354.3951 a 142.56905,142.56905 0 0 1 -0.12804,-0.21476 142.56905,142.56905 0 0 1 -5.17694,-10.58724 142.56905,142.56905 0 0 1 -4.28281,-10.97753 142.56905,142.56905 0 0 1 -3.36181,-11.29346 142.56905,142.56905 0 0 1 -2.41811,-11.53094 142.56905,142.56905 0 0 1 -1.45789,-11.69408 142.56905,142.56905 0 0 1 -0.48734,-11.77254 142.56905,142.56905 0 0 1 0.48734,-11.77461 142.56905,142.56905 0 0 1 1.45789,-11.69201 142.56905,142.56905 0 0 1 1.17911,-5.62712 142.56905,142.56905 0 0 0 -2.0237,2.83524 142.56905,142.56905 0 0 0 -6.03185,10.12261 142.56905,142.56905 0 0 0 -5.17488,10.58724 142.56905,142.56905 0 0 0 -4.2828,10.97546 142.56905,142.56905 0 0 0 -2.050546,6.89089 142.56905,142.56905 0 0 0 0.712427,2.39746 142.56905,142.56905 0 0 0 4.282809,10.97753 142.56905,142.56905 0 0 0 5.17488,10.58517 142.56905,142.56905 0 0 0 6.03185,10.12261 142.56905,142.56905 0 0 0 6.84753,9.58984 142.56905,142.56905 0 0 0 7.6157,8.99306 142.56905,142.56905 0 0 0 3.08717,3.08717 z" />
      <path
         id="path1327"
         style="font-variation-settings:'wdth' 94, 'wght' 545;fill:#008033;fill-opacity:1;stroke-width:0.365113"
         d="m 321.07546,294.14883 a 142.56905,142.56905 0 0 1 -2.05052,6.89089 142.56905,142.56905 0 0 1 -4.28281,10.97752 142.56905,142.56905 0 0 1 -5.17488,10.58517 142.56905,142.56905 0 0 1 -6.03186,10.12262 142.56905,142.56905 0 0 1 -6.84752,9.58984 142.56905,142.56905 0 0 1 -7.61571,8.99306 142.56905,142.56905 0 0 1 -8.33226,8.33226 142.56905,142.56905 0 0 1 -8.991,7.61364 142.56905,142.56905 0 0 1 -9.58985,6.84753 142.56905,142.56905 0 0 1 -10.12261,6.03185 142.56905,142.56905 0 0 1 -10.58724,5.17489 142.56905,142.56905 0 0 1 -10.97751,4.28486 142.56905,142.56905 0 0 1 -11.29347,3.36182 142.56905,142.56905 0 0 1 -11.53094,2.41811 142.56905,142.56905 0 0 1 -11.69408,1.45788 142.56905,142.56905 0 0 1 -11.77253,0.4853 142.56905,142.56905 0 0 1 -11.77256,-0.4853 142.56905,142.56905 0 0 1 -11.69408,-1.45788 142.56905,142.56905 0 0 1 -11.533,-2.41811 142.56905,142.56905 0 0 1 -11.29346,-3.36182 142.56905,142.56905 0 0 1 -10.97546,-4.28486 142.56905,142.56905 0 0 1 -10.58724,-5.17489 142.56905,142.56905 0 0 1 -10.12261,-6.03185 142.56905,142.56905 0 0 1 -9.589839,-6.84753 142.56905,142.56905 0 0 1 -8.991,-7.61364 142.56905,142.56905 0 0 1 -5.2451,-5.24509 142.56905,142.56905 0 0 0 5.90177,9.90787 142.56905,142.56905 0 0 0 6.84753,9.58984 142.56905,142.56905 0 0 0 7.615699,8.99099 142.56905,142.56905 0 0 0 8.33227,8.33227 142.56905,142.56905 0 0 0 8.991,7.61569 142.56905,142.56905 0 0 0 9.58983,6.84547 142.56905,142.56905 0 0 0 10.12261,6.03186 142.56905,142.56905 0 0 0 10.58724,5.17694 142.56905,142.56905 0 0 0 10.97752,4.28281 142.56905,142.56905 0 0 0 11.29347,3.36182 142.56905,142.56905 0 0 0 11.53095,2.41811 142.56905,142.56905 0 0 0 11.69407,1.45788 142.56905,142.56905 0 0 0 11.77254,0.48733 142.56905,142.56905 0 0 0 11.77255,-0.48733 142.56905,142.56905 0 0 0 11.69407,-1.45788 142.56905,142.56905 0 0 0 11.53301,-2.41811 142.56905,142.56905 0 0 0 11.29346,-3.36182 142.56905,142.56905 0 0 0 10.97546,-4.28281 142.56905,142.56905 0 0 0 10.58724,-5.17694 142.56905,142.56905 0 0 0 10.12261,-6.03186 142.56905,142.56905 0 0 0 9.58985,-6.84547 142.56905,142.56905 0 0 0 8.99099,-7.61569 142.56905,142.56905 0 0 0 8.33227,-8.33227 142.56905,142.56905 0 0 0 7.61571,-8.99099 142.56905,142.56905 0 0 0 4.82384,-6.75461 142.56905,142.56905 0 0 0 1.1791,-5.62712 142.56905,142.56905 0 0 0 1.45788,-11.69408 142.56905,142.56905 0 0 0 0.48735,-11.77254 142.56905,142.56905 0 0 0 -0.48735,-11.77255 142.56905,142.56905 0 0 0 -1.45788,-11.69407 142.56905,142.56905 0 0 0 -2.41811,-11.53301 142.56905,142.56905 0 0 0 -2.64941,-8.896 z" />
      <path
         id="path1325"
         style="font-variation-settings:'wdth' 94, 'wght' 545;fill:#2aff80;fill-opacity:1;stroke-width:0.365113"
         d="m 309.44337,186.68434 a 142.56905,142.56905 0 0 0 -5.25131,-5.25128 142.56905,142.56905 0 0 0 -8.99099,-7.61571 142.56905,142.56905 0 0 0 -9.58985,-6.84753 142.56905,142.56905 0 0 0 -10.12261,-6.03185 142.56905,142.56905 0 0 0 -10.58724,-5.17488 142.56905,142.56905 0 0 0 -10.97546,-4.28281 142.56905,142.56905 0 0 0 -11.29346,-3.36181 142.56905,142.56905 0 0 0 -11.53301,-2.41811 142.56905,142.56905 0 0 0 -11.69407,-1.4579 142.56905,142.56905 0 0 0 -11.77255,-0.48733 142.56905,142.56905 0 0 0 -11.77254,0.48733 142.56905,142.56905 0 0 0 -11.69407,1.4579 142.56905,142.56905 0 0 0 -11.53095,2.41811 142.56905,142.56905 0 0 0 -11.29347,3.36181 142.56905,142.56905 0 0 0 -10.97752,4.28281 142.56905,142.56905 0 0 0 -10.58724,5.17488 142.56905,142.56905 0 0 0 -10.12261,6.03185 142.56905,142.56905 0 0 0 -9.58983,6.84753 142.56905,142.56905 0 0 0 -8.991,7.61571 142.56905,142.56905 0 0 0 -8.33227,8.33226 142.56905,142.56905 0 0 0 -7.615699,8.99099 142.56905,142.56905 0 0 0 -6.84753,9.58984 142.56905,142.56905 0 0 0 -6.02979,10.12262 142.56905,142.56905 0 0 0 -5.17694,10.58517 142.56905,142.56905 0 0 0 -4.28282,10.97752 142.56905,142.56905 0 0 0 -3.3618,11.29346 142.56905,142.56905 0 0 0 -1.23901,5.9059 142.56905,142.56905 0 0 1 4.82384,-6.75461 142.56905,142.56905 0 0 1 7.61571,-8.99099 142.56905,142.56905 0 0 1 8.33226,-8.33227 142.56905,142.56905 0 0 1 8.99098,-7.61569 142.56905,142.56905 0 0 1 9.589859,-6.84753 142.56905,142.56905 0 0 1 10.12261,-6.03186 142.56905,142.56905 0 0 1 10.58724,-5.17488 142.56905,142.56905 0 0 1 10.97545,-4.2828 142.56905,142.56905 0 0 1 11.29347,-3.36182 142.56905,142.56905 0 0 1 11.53301,-2.41811 142.56905,142.56905 0 0 1 11.69408,-1.45789 142.56905,142.56905 0 0 1 11.77253,-0.48734 142.56905,142.56905 0 0 1 11.77255,0.48734 142.56905,142.56905 0 0 1 11.69407,1.45789 142.56905,142.56905 0 0 1 11.53302,2.41811 142.56905,142.56905 0 0 1 11.29346,3.36182 142.56905,142.56905 0 0 1 10.97546,4.2828 142.56905,142.56905 0 0 1 10.58723,5.17488 142.56905,142.56905 0 0 1 10.12261,6.03186 142.56905,142.56905 0 0 1 9.58985,6.84753 142.56905,142.56905 0 0 1 8.991,7.61569 142.56905,142.56905 0 0 1 8.33226,8.33227 142.56905,142.56905 0 0 1 7.61569,8.99099 142.56905,142.56905 0 0 1 6.84753,9.58985 142.56905,142.56905 0 0 1 6.03188,10.12261 142.56905,142.56905 0 0 1 5.17486,10.58724 142.56905,142.56905 0 0 1 4.28281,10.97546 142.56905,142.56905 0 0 1 0.71241,2.39746 142.56905,142.56905 0 0 0 1.3113,-4.40257 142.56905,142.56905 0 0 0 2.41811,-11.53301 142.56905,142.56905 0 0 0 1.45788,-11.69201 142.56905,142.56905 0 0 0 0.48733,-11.77255 142.56905,142.56905 0 0 0 -0.48733,-11.7746 142.56905,142.56905 0 0 0 -1.45788,-11.69202 142.56905,142.56905 0 0 0 -2.41811,-11.533 142.56905,142.56905 0 0 0 -3.36182,-11.29347 142.56905,142.56905 0 0 0 -4.28281,-10.97752 142.56905,142.56905 0 0 0 -5.17488,-10.58517 142.56905,142.56905 0 0 0 -0.12378,-0.20857 z" />
      <path
         id="path1323"
         style="font-variation-settings:'wdth' 94, 'wght' 545;fill:#008033;fill-opacity:1;stroke-width:0.365113"
         d="m 309.44337,186.68434 a 142.56905,142.56905 0 0 1 0.12377,0.20858 142.56905,142.56905 0 0 1 5.17488,10.58517 142.56905,142.56905 0 0 1 4.28281,10.97752 142.56905,142.56905 0 0 1 3.36182,11.29347 142.56905,142.56905 0 0 1 2.41811,11.53299 142.56905,142.56905 0 0 1 1.45788,11.69202 142.56905,142.56905 0 0 1 0.48733,11.7746 142.56905,142.56905 0 0 1 -0.48733,11.77256 142.56905,142.56905 0 0 1 -1.45788,11.692 142.56905,142.56905 0 0 1 -2.41811,11.53302 142.56905,142.56905 0 0 1 -1.31129,4.40256 142.56905,142.56905 0 0 1 2.64941,8.89601 142.56905,142.56905 0 0 1 2.4181,11.53301 142.56905,142.56905 0 0 1 1.45788,11.69406 142.56905,142.56905 0 0 1 0.48736,11.77256 142.56905,142.56905 0 0 1 -0.48736,11.77254 142.56905,142.56905 0 0 1 -1.45788,11.69408 142.56905,142.56905 0 0 1 -1.17909,5.62711 142.56905,142.56905 0 0 0 2.02368,-2.83523 142.56905,142.56905 0 0 0 6.03185,-10.12262 142.56905,142.56905 0 0 0 5.17489,-10.58723 142.56905,142.56905 0 0 0 4.28278,-10.97754 142.56905,142.56905 0 0 0 3.36183,-11.29346 142.56905,142.56905 0 0 0 2.4181,-11.53094 142.56905,142.56905 0 0 0 1.45788,-11.69408 142.56905,142.56905 0 0 0 0.48736,-11.77254 142.56905,142.56905 0 0 0 -0.48736,-11.77461 142.56905,142.56905 0 0 0 -1.45788,-11.69201 142.56905,142.56905 0 0 0 -2.4181,-11.53301 142.56905,142.56905 0 0 0 -3.36183,-11.29346 142.56905,142.56905 0 0 0 -4.28278,-10.97752 142.56905,142.56905 0 0 0 -5.17489,-10.58518 142.56905,142.56905 0 0 0 -6.03185,-10.12261 142.56905,142.56905 0 0 0 -6.84753,-9.58984 142.56905,142.56905 0 0 0 -7.61572,-8.991 142.56905,142.56905 0 0 0 -3.08095,-3.08097 z" />
      <path
         id="path1321"
         style="font-variation-settings:'wdth' 94, 'wght' 545;fill:#80ffb3;fill-opacity:1;stroke-width:0.365113"
         d="m 184.18067,112.17926 a 142.56905,142.56905 0 0 0 -11.77256,0.48734 142.56905,142.56905 0 0 0 -11.69408,1.45583 142.56905,142.56905 0 0 0 -11.533,2.41811 142.56905,142.56905 0 0 0 -11.29346,3.36388 142.56905,142.56905 0 0 0 -10.97546,4.2828 142.56905,142.56905 0 0 0 -10.58724,5.17488 142.56905,142.56905 0 0 0 -10.12261,6.03186 142.56905,142.56905 0 0 0 -9.589839,6.84753 142.56905,142.56905 0 0 0 -8.991,7.61571 142.56905,142.56905 0 0 0 -8.33226,8.3302 142.56905,142.56905 0 0 0 -7.6157,8.99306 142.56905,142.56905 0 0 0 -6.84753,9.58984 142.56905,142.56905 0 0 0 -6.03186,10.12261 142.56905,142.56905 0 0 0 -5.17488,10.58517 142.56905,142.56905 0 0 0 -4.282805,10.97752 142.56905,142.56905 0 0 0 -3.361814,11.29347 142.56905,142.56905 0 0 0 -2.418109,11.533 142.56905,142.56905 0 0 0 -1.457893,11.69202 142.56905,142.56905 0 0 0 -0.487338,11.7746 142.56905,142.56905 0 0 0 0.487338,11.77255 142.56905,142.56905 0 0 0 1.457893,11.69201 142.56905,142.56905 0 0 0 2.418109,11.53301 142.56905,142.56905 0 0 0 2.649388,8.896 142.56905,142.56905 0 0 1 2.050545,-6.89089 142.56905,142.56905 0 0 1 4.282806,-10.97546 142.56905,142.56905 0 0 1 5.17487,-10.58724 142.56905,142.56905 0 0 1 6.03186,-10.12261 142.56905,142.56905 0 0 1 2.02369,-2.83524 142.56905,142.56905 0 0 1 1.23901,-5.9059 142.56905,142.56905 0 0 1 3.3618,-11.29346 142.56905,142.56905 0 0 1 4.28282,-10.97752 142.56905,142.56905 0 0 1 5.17694,-10.58517 142.56905,142.56905 0 0 1 6.02979,-10.12262 142.56905,142.56905 0 0 1 6.84753,-9.58984 142.56905,142.56905 0 0 1 7.615699,-8.99099 142.56905,142.56905 0 0 1 8.33227,-8.33226 142.56905,142.56905 0 0 1 8.991,-7.61571 142.56905,142.56905 0 0 1 9.58983,-6.84753 142.56905,142.56905 0 0 1 10.12261,-6.03185 142.56905,142.56905 0 0 1 10.58724,-5.17488 142.56905,142.56905 0 0 1 10.97752,-4.28281 142.56905,142.56905 0 0 1 11.29347,-3.36181 142.56905,142.56905 0 0 1 11.53095,-2.41811 142.56905,142.56905 0 0 1 11.69407,-1.4579 142.56905,142.56905 0 0 1 11.77254,-0.48733 142.56905,142.56905 0 0 1 11.77255,0.48733 142.56905,142.56905 0 0 1 11.69407,1.4579 142.56905,142.56905 0 0 1 11.53301,2.41811 142.56905,142.56905 0 0 1 11.29346,3.36181 142.56905,142.56905 0 0 1 10.97546,4.28281 142.56905,142.56905 0 0 1 10.58724,5.17488 142.56905,142.56905 0 0 1 10.12261,6.03185 142.56905,142.56905 0 0 1 9.58985,6.84753 142.56905,142.56905 0 0 1 8.99099,7.61571 142.56905,142.56905 0 0 1 5.25131,5.25128 142.56905,142.56905 0 0 0 -5.90798,-9.91404 142.56905,142.56905 0 0 0 -6.84752,-9.58984 142.56905,142.56905 0 0 0 -7.61571,-8.99306 142.56905,142.56905 0 0 0 -8.33226,-8.3302 142.56905,142.56905 0 0 0 -8.991,-7.61571 142.56905,142.56905 0 0 0 -9.58985,-6.84753 142.56905,142.56905 0 0 0 -10.12261,-6.03186 142.56905,142.56905 0 0 0 -10.58724,-5.17488 142.56905,142.56905 0 0 0 -10.97751,-4.2828 142.56905,142.56905 0 0 0 -11.29347,-3.36388 142.56905,142.56905 0 0 0 -11.53094,-2.41811 142.56905,142.56905 0 0 0 -11.69408,-1.45583 142.56905,142.56905 0 0 0 -11.77253,-0.48734 z" />
    </g>
    <text
       xml:space="preserve"
       style="font-style:normal;font-variant:normal;font-weight:900;font-stretch:normal;font-size:94.695px;line-height:1.25;font-family:'Segoe UI';-inkscape-font-specification:'Segoe UI, Heavy';font-variant-ligatures:normal;font-variant-caps:normal;font-variant-numeric:normal;font-variant-east-asian:normal;fill:#5fd35f;stroke-width:0.264583"
       x="341.12823"
       y="298.20743"
       id="text4123"><tspan
         sodipodi:role="line"
         id="tspan4121"
         style="font-style:normal;font-variant:normal;font-weight:900;font-stretch:normal;font-size:94.695px;font-family:'Segoe UI';-inkscape-font-specification:'Segoe UI, Heavy';font-variant-ligatures:normal;font-variant-caps:normal;font-variant-numeric:normal;font-variant-east-asian:normal;fill:#5fd35f;stroke-width:0.264583"
         x="341.12823"
         y="298.20743">Pulsitere</tspan></text>
  </g>
</svg>
